<svg width="323" height="127" viewBox="0 0 323 127" fill="none" xmlns="http://www.w3.org/2000/svg">
<g filter="url(#filter0_i)">
<path d="M39.0351 104.301C40.0074 104.294 40.7151 104.464 41.1582 104.814C41.6104 105.133 41.8871 105.551 41.9883 106.067C42.1295 106.558 42.1244 107.105 41.9729 107.707C41.8214 108.31 41.6173 108.873 41.3605 109.397C40.8368 109.629 40.2142 109.816 39.4925 109.956C38.7709 110.095 38.0383 110.218 37.2949 110.323C36.5206 110.424 35.7663 110.512 35.032 110.587C34.3068 110.633 33.6634 110.675 33.1018 110.714C32.7767 110.508 32.387 110.355 31.9328 110.254C31.4568 110.118 30.9716 110.013 30.4774 109.937C29.9923 109.832 29.5026 109.741 29.0083 109.665C28.4923 109.555 28.0117 109.435 27.5666 109.304C26.333 108.896 25.1886 108.408 24.1333 107.84C23.0871 107.242 21.9673 106.727 20.7737 106.294C20.5139 106.192 20.2422 106.181 19.9586 106.263C19.6842 106.315 19.4479 106.294 19.2499 106.201C19.1355 106.153 19.0856 106.051 19.1003 105.897C19.0841 105.738 19.0034 105.632 18.858 105.578C18.5456 105.437 18.2721 105.379 18.0377 105.406C17.8123 105.403 17.568 105.303 17.3047 105.106C17.1031 104.919 16.8026 104.685 16.4031 104.405C15.9818 104.09 15.4995 103.923 14.9561 103.902C14.8528 103.605 14.7141 103.318 14.5399 103.041C14.3657 102.764 14.2225 102.491 14.1101 102.224C13.9759 101.922 13.8772 101.61 13.8139 101.287C13.7598 100.935 13.8011 100.534 13.9379 100.086C14.3197 99.8941 14.7051 99.7966 15.094 99.7935C15.4921 99.7606 15.8856 99.7426 16.2745 99.7395C16.6725 99.7065 17.0643 99.6413 17.4496 99.5439C17.8041 99.4417 18.1288 99.2254 18.4236 98.8951C18.6707 98.9329 18.9796 98.9802 19.3503 99.0369C19.721 99.0936 20.0962 99.1354 20.476 99.1622C20.8249 99.1843 21.1675 99.1742 21.5038 99.1318C21.8183 99.0547 22.0583 98.9037 22.2239 98.6788C23.5425 99.4437 24.8548 100.176 26.1608 100.877C27.4758 101.547 28.8292 102.145 30.2207 102.671C31.5814 103.192 32.9894 103.611 34.4448 103.927C35.9093 104.214 37.4394 104.339 39.0351 104.301ZM38.2362 89.1152C38.216 89.3937 38.3266 89.6139 38.5681 89.776C38.7788 89.9334 39.0049 90.0931 39.2464 90.2552C39.4971 90.3874 39.7277 90.5322 39.9384 90.6896C40.1272 90.8124 40.1898 90.9784 40.1259 91.1876C40.3639 91.2553 40.5528 91.378 40.6926 91.5558C40.8414 91.7038 41.0057 91.854 41.1855 92.0067C41.3344 92.1546 41.5232 92.2774 41.7521 92.3749C41.9501 92.4678 42.2218 92.4781 42.5672 92.4058C42.6796 92.6733 42.8966 92.8629 43.2181 92.9747C43.5397 93.0864 43.8412 93.2108 44.1228 93.3477C44.4134 93.4548 44.6395 93.6145 44.8011 93.8269C44.9626 94.0393 44.9549 94.3823 44.7782 94.8558C44.8744 94.9644 44.947 94.9912 44.9962 94.9361C45.0453 94.881 45.1671 94.8528 45.3615 94.8512C45.1995 95.1706 45.1374 95.427 45.1753 95.6205C45.2533 95.7889 45.2713 95.995 45.2292 96.2388C44.8706 96.7784 44.4004 97.207 43.8185 97.5246C43.2457 97.8124 42.6357 98.0632 41.9884 98.2771C41.3195 98.4563 40.655 98.6205 39.9952 98.7699C39.3444 98.8893 38.7709 99.0205 38.2746 99.1636C37.9621 99.0219 37.6424 98.9574 37.3152 98.9699C36.9572 98.9777 36.6472 99.0398 36.3854 99.1561C33.6196 97.2 30.6786 95.0763 27.5624 92.7849C24.4463 90.4936 21.349 88.2991 18.2708 86.2013C18.7586 85.5563 19.2881 84.9334 19.8594 84.3326C20.4089 83.6971 20.9974 83.1458 21.6249 82.6787C22.2615 82.1816 22.948 81.7861 23.6844 81.4921C24.3898 81.1933 25.1315 81.0409 25.9094 81.0347C26.0765 81.1229 26.1309 81.2094 26.0726 81.2943C25.9926 81.3447 25.9898 81.4068 26.0643 81.4808C26.2552 81.3848 26.3815 81.3416 26.4433 81.3511C26.5142 81.3306 26.576 81.3401 26.6287 81.3794C26.6904 81.3889 26.7831 81.4031 26.9067 81.422C26.9994 81.4361 27.152 81.4126 27.3647 81.3513C27.2974 81.4661 27.2855 81.5581 27.329 81.6274C27.3817 81.6667 27.3543 81.7564 27.2469 81.8964C27.6232 81.8288 27.9103 81.8414 28.1083 81.9343C28.3155 81.9973 28.498 82.0878 28.656 82.2058C28.7831 82.3191 28.9456 82.4222 29.1436 82.5151C29.3107 82.6032 29.5624 82.6261 29.8987 82.5836C29.8713 82.6733 29.8794 82.7528 29.923 82.822C29.9447 82.8566 29.9819 82.8936 30.0346 82.9329C30.0564 82.9676 30.089 83.0195 30.1326 83.0887C30.1544 83.1233 30.1361 83.1831 30.0779 83.2681C30.7848 83.2824 31.4735 83.3564 32.144 83.4903C32.8145 83.6242 33.5004 83.7604 34.2018 83.899C34.8813 84.003 35.6118 84.0991 36.3932 84.1874C37.1437 84.2709 37.9479 84.2845 38.8058 84.228C38.4853 83.0527 37.9112 82.0732 37.0833 81.2896C36.2645 80.476 35.2811 79.7781 34.1332 79.1957C32.9943 78.5835 31.7309 78.0617 30.3429 77.6303C28.9548 77.199 27.5405 76.7479 26.0998 76.2772C25.9039 75.9657 25.6279 75.7045 25.2719 75.4936C24.9159 75.2827 24.5399 75.0844 24.1439 74.8987C23.7171 74.7082 23.3056 74.5201 22.9096 74.3344C22.4828 74.1439 22.1113 73.9307 21.7954 73.6946C21.9939 73.2557 22.2624 72.9057 22.6007 72.6446C22.9172 72.3489 23.2555 72.0878 23.6156 71.8614C23.9448 71.6302 24.2786 71.384 24.6169 71.1229C24.9243 70.8571 25.1773 70.5048 25.3758 70.0659C26.0104 69.7875 26.6204 69.5367 27.2058 69.3135C27.7913 69.0902 28.3757 68.9762 28.9591 68.9716C29.1606 69.1589 29.4022 69.321 29.6837 69.4579C29.9744 69.565 30.2605 69.687 30.542 69.8239C30.8236 69.9608 31.0806 70.1253 31.313 70.3173C31.5145 70.5045 31.6669 70.7468 31.7702 71.0442C32.546 71.2568 33.2509 71.4898 33.8849 71.7432C34.4971 71.962 35.1048 72.1957 35.7079 72.4444C36.3201 72.6633 36.9678 72.8719 37.6509 73.0702C38.3031 73.2639 39.0508 73.4096 39.894 73.5073C40.5315 73.8551 41.2108 74.225 41.9319 74.6169C42.653 75.0087 43.3151 75.329 43.9182 75.5777C44.1739 76.1174 44.5387 76.5643 45.0127 76.9184C45.4866 77.2725 45.956 77.6415 46.4209 78.0255C46.508 78.1639 46.516 78.2434 46.4451 78.2638C46.3742 78.2843 46.296 78.3818 46.2104 78.5564C46.3431 78.5454 46.4357 78.5596 46.4884 78.5989C46.5411 78.6383 46.5892 78.6926 46.6327 78.7618C46.6545 78.7964 46.7071 78.8358 46.7907 78.8798C46.8834 78.894 47.0161 78.883 47.1887 78.8469C47.2464 79.2937 47.395 79.7075 47.6345 80.0883C47.874 80.469 48.0735 80.875 48.2329 81.3061C48.4015 81.7073 48.4501 82.184 48.3786 82.7362C48.3163 83.2585 48.003 83.9145 47.4387 84.7042C46.1382 85.7879 44.7396 86.7158 43.2431 87.4879C41.7556 88.2302 40.0867 88.7726 38.2362 89.1152ZM57.5542 55.0449C57.4392 55.5279 57.2413 56.1233 56.9607 56.8312C56.6892 57.5092 56.6013 58.1684 56.6969 58.8087C56.1518 60.3834 55.4586 61.9668 54.6173 63.5587C53.7759 65.1507 52.8984 66.5963 51.9847 67.8957C51.5537 68.1426 51.1536 68.3942 50.7844 68.6506C50.3843 68.9022 50.045 69.2726 49.7664 69.7619C48.9606 70.3894 48.0723 70.8636 47.1015 71.1843C46.0998 71.5003 45.0791 71.7196 44.0394 71.8421C42.9997 71.9646 41.972 71.995 40.9561 71.9335C39.9094 71.8672 38.9272 71.7482 38.0096 71.5765C36.7563 70.9155 35.7585 70.1058 35.0162 69.1475C34.2522 68.1547 33.5081 67.1492 32.7841 66.1311C32.7173 65.7142 32.6186 65.4019 32.4879 65.1942C32.3355 64.9519 32.214 64.7143 32.1234 64.4814C32.011 64.214 31.9095 63.9638 31.8189 63.7309C31.7065 63.4635 31.5541 63.2211 31.3617 63.004C31.3987 62.3527 31.3466 61.7816 31.2054 61.2907C31.0424 60.7652 30.8748 60.2546 30.7027 59.759C30.4997 59.2587 30.3321 58.7481 30.2 58.2273C30.0679 57.7066 30.0204 57.1205 30.0574 56.4692C29.8523 56.1875 29.7227 55.8705 29.6686 55.5181C29.5836 55.1609 29.514 54.8062 29.4598 54.4537C29.3839 54.0667 29.2989 53.7096 29.2047 53.3823C29.1197 53.0251 28.9501 52.7333 28.6959 52.5067C28.9886 52.395 29.1451 52.2 29.1654 51.9215C29.1548 51.6383 29.1396 51.3701 29.1199 51.1168C29.1346 50.9626 29.202 50.8478 29.322 50.7723C29.4511 50.6669 29.5757 50.5765 29.6958 50.501C29.8158 50.4255 29.9004 50.3602 29.9495 50.3052C29.9769 50.2155 29.9224 50.129 29.7862 50.0455C29.8318 49.8961 29.9227 49.8631 30.0589 49.9465C30.1951 50.0299 30.2896 50.0913 30.3422 50.1306C30.3843 49.8868 30.5053 49.7019 30.7054 49.5761C30.8837 49.4157 31.043 49.1585 31.1833 48.8045C31.3742 48.7086 31.5069 48.6976 31.5813 48.7716C31.6249 48.8408 31.7393 48.8896 31.9247 48.918C32.4762 48.0638 33.0974 47.5644 33.7882 47.4198C34.448 47.2705 35.0704 47.3501 35.6553 47.6586C36.2401 47.9671 36.7285 48.4328 37.1204 49.0559C37.5123 49.679 37.7052 50.3186 37.699 50.9746C37.6629 52.4708 37.6959 53.8993 37.798 55.2602C37.8784 56.5865 38.2588 57.724 38.9394 58.6728C38.9367 59.4233 39.0341 60.1108 39.2316 60.7354C39.4072 61.3255 39.6492 61.91 39.9576 62.489C40.2441 63.0334 40.5661 63.5676 40.9236 64.0916C41.2593 64.5809 41.5859 65.1002 41.9033 65.6493C42.3449 65.6856 42.6619 65.8123 42.8543 66.0294C43.025 66.212 43.2111 66.3969 43.4126 66.5841C43.8942 66.5952 44.3431 66.5544 44.7594 66.4617C45.1448 66.3642 45.5347 66.2518 45.9292 66.1245C47.1489 64.2463 48.1734 62.213 49.0026 60.0248C49.841 57.8067 50.6175 55.5791 51.3324 53.3421C51.7051 53.1801 52.0715 52.9859 52.4316 52.7595C52.7699 52.4984 53.13 52.2719 53.5118 52.08C53.8628 51.8834 54.2464 51.7388 54.6627 51.6461C55.0481 51.5486 55.4897 51.5849 55.9875 51.7549C56.3232 52.2442 56.6143 52.7737 56.8608 53.3433C57.0765 53.9081 57.3076 54.4753 57.5542 55.0449Z" fill="#41414D"/>
</g>
<g filter="url(#filter1_i)">
<path d="M53.3662 120.025C53.0798 119.739 52.8291 119.417 52.6143 119.059C52.3994 118.629 52.2204 118.092 52.0771 117.447C51.0745 116.23 50.2868 114.833 49.7139 113.258C49.141 111.682 48.7471 110.071 48.5322 108.424C48.3174 106.705 48.2816 104.986 48.4248 103.268C48.568 101.549 48.8187 99.9375 49.1768 98.4336C49.3916 97.7174 49.5706 96.9655 49.7139 96.1777C50.0719 94.8171 50.43 93.4922 50.7881 92.2031C51.1462 90.8424 51.6833 89.7324 52.3994 88.873C52.113 88.0853 52.1488 87.2259 52.5068 86.2949C52.8649 85.3639 53.223 84.5046 53.5811 83.7168C53.7243 83.502 53.8317 83.3229 53.9033 83.1797C53.9749 82.9648 54.0465 82.7858 54.1182 82.6426C54.9775 80.1361 55.8011 77.737 56.5889 75.4453C57.4482 73.082 58.2718 70.8262 59.0596 68.6777C60.4919 64.7389 61.8525 60.8717 63.1416 57.0762C64.5023 53.2806 65.7197 49.2344 66.7939 44.9375C67.3669 44.5078 67.8682 44.2214 68.2979 44.0781C68.4411 44.0065 68.6201 43.9349 68.835 43.8633C69.0498 43.7917 69.3005 43.7559 69.5869 43.7559C71.0908 44.5436 72.8454 45.2956 74.8506 46.0117C76.9274 46.6562 78.682 46.9785 80.1143 46.9785L81.9404 48.5898C82.8714 49.6641 83.6592 50.8099 84.3037 52.0273C85.0199 53.1732 85.2347 54.6771 84.9482 56.5391C84.5186 57.1836 84.1605 57.5775 83.874 57.7207C83.4443 59.3678 82.9788 60.8359 82.4775 62.125C81.9762 63.3424 81.4749 64.5241 80.9736 65.6699C80.4007 66.959 79.8636 68.248 79.3623 69.5371C78.861 70.8262 78.4313 72.4017 78.0732 74.2637C77.6436 74.765 77.3571 75.1947 77.2139 75.5527C77.1423 75.9108 77.0348 76.2689 76.8916 76.627C76.7484 77.0566 76.5693 77.5221 76.3545 78.0234C76.1396 78.4531 75.8174 78.847 75.3877 79.2051C75.1012 81.4251 74.6715 83.2513 74.0986 84.6836C73.5257 86.0443 72.9528 87.4049 72.3799 88.7656C71.3773 91.2721 70.4463 93.7786 69.5869 96.2852C68.7275 98.7201 68.2262 101.513 68.083 104.664C68.9424 104.449 69.7301 104.342 70.4463 104.342C71.3773 104.342 72.2725 104.485 73.1318 104.771C75.71 103.482 78.5029 102.695 81.5107 102.408C84.5902 102.122 87.6338 101.943 90.6416 101.871C93.1481 101.871 95.4756 101.764 97.624 101.549C98.3402 102.05 98.8057 102.337 99.0205 102.408C99.2354 102.408 99.5934 102.408 100.095 102.408C100.31 102.408 100.524 102.408 100.739 102.408C100.954 102.408 101.241 102.444 101.599 102.516C102.601 103.518 103.568 104.234 104.499 104.664C105.43 105.022 106.433 105.38 107.507 105.738C108.438 106.096 109.333 106.49 110.192 106.92C111.123 107.278 112.019 107.779 112.878 108.424L113.845 113.902C114.418 114.69 114.668 115.227 114.597 115.514C114.597 116.087 114.453 116.588 114.167 117.018L114.382 118.414C113.021 118.701 112.126 119.023 111.696 119.381C111.267 119.667 110.801 120.061 110.3 120.562C109.512 120.634 108.76 120.67 108.044 120.67C106.612 120.67 105.144 120.885 103.64 121.314C101.491 120.527 99.1279 120.133 96.5498 120.133C95.5472 120.133 94.5088 120.169 93.4346 120.24C92.432 120.312 91.4294 120.419 90.4268 120.562C89.3525 120.706 88.2783 120.849 87.2041 120.992C86.1299 121.064 85.0557 121.1 83.9814 121.1C83.1221 121.243 82.5133 121.35 82.1553 121.422C81.7972 121.493 81.4391 121.601 81.0811 121.744C78.6462 122.532 75.9964 123.32 73.1318 124.107C70.3389 124.895 67.5101 125.289 64.6455 125.289C60.4202 125.289 57.0186 124.215 54.4404 122.066C54.154 121.422 53.9391 120.992 53.7959 120.777C53.6527 120.562 53.5094 120.312 53.3662 120.025ZM118.679 125.289C117.676 124.645 116.888 123.821 116.315 122.818C115.671 121.816 115.17 120.742 114.812 119.596C114.382 118.45 114.06 117.268 113.845 116.051C113.558 114.762 113.272 113.544 112.985 112.398C112.985 111.396 113.2 110.68 113.63 110.25C114.06 109.749 114.525 109.283 115.026 108.854C116.745 108.782 118.285 108.639 119.646 108.424C121.006 108.209 122.331 107.994 123.62 107.779C124.909 107.564 126.198 107.385 127.487 107.242C128.776 107.027 130.173 106.92 131.677 106.92C132.751 104.7 133.754 102.587 134.685 100.582C135.616 98.5052 136.511 96.5358 137.37 94.6738C137.8 92.8835 138.337 91.2363 138.981 89.7324C139.698 88.1569 140.378 86.6888 141.022 85.3281C141.667 83.8958 142.24 82.4993 142.741 81.1387C143.243 79.7064 143.565 78.2025 143.708 76.627C144.567 74.1204 145.319 71.8288 145.964 69.752C146.68 67.6035 147.217 65.0612 147.575 62.125C144.854 62.5547 142.67 62.9844 141.022 63.4141C139.375 63.7721 138.194 64.1302 137.478 64.4883C136.045 64.4167 134.899 64.1302 134.04 63.6289C133.252 63.1276 132.608 62.5189 132.106 61.8027C131.605 61.0866 131.175 60.263 130.817 59.332C130.459 58.401 130.03 57.4342 129.528 56.4316C129.815 55.7871 129.886 54.8561 129.743 53.6387C129.6 52.3496 129.17 51.4186 128.454 50.8457C129.027 50.7025 129.457 50.237 129.743 49.4492C130.03 48.5898 130.065 47.9453 129.851 47.5156C131.068 47.1576 132.357 46.9427 133.718 46.8711C135.078 46.7279 136.403 46.6204 137.692 46.5488C139.053 46.4056 140.342 46.2624 141.56 46.1191C142.777 45.9043 143.815 45.5104 144.675 44.9375C148.399 44.7943 152.266 44.651 156.276 44.5078C160.358 44.3646 164.118 44.1855 167.556 43.9707C168.845 44.4004 170.313 44.6152 171.96 44.6152C173.679 44.6152 175.362 44.7227 177.009 44.9375C178.728 45.1523 180.231 45.6178 181.521 46.334C182.881 47.0501 183.812 48.3034 184.313 50.0938C185.388 50.237 186.175 50.5234 186.677 50.9531C187.25 51.3828 187.608 51.9199 187.751 52.5645C187.894 53.1374 187.93 53.8177 187.858 54.6055C187.858 55.3216 187.858 56.0378 187.858 56.7539C186.713 57.6133 185.244 58.3294 183.454 58.9023C181.735 59.4036 179.838 59.8333 177.761 60.1914C175.684 60.4779 173.5 60.6927 171.208 60.8359C168.988 60.9076 166.804 60.9792 164.655 61.0508C164.297 63.4141 163.653 66.207 162.722 69.4297C161.862 72.5807 160.967 75.696 160.036 78.7754C159.105 81.7832 158.282 84.5046 157.565 86.9395C156.921 89.3027 156.634 90.8424 156.706 91.5586C155.99 93.2057 155.381 94.6022 154.88 95.748C154.45 96.8939 154.021 97.9681 153.591 98.9707C153.233 99.9733 152.839 100.976 152.409 101.979C152.051 102.91 151.586 103.984 151.013 105.201H158.317C158.461 105.989 158.783 106.526 159.284 106.812C159.785 107.099 160.323 107.35 160.896 107.564C161.468 107.779 161.97 108.066 162.399 108.424C162.901 108.71 163.151 109.212 163.151 109.928C164.512 110.286 165.371 110.823 165.729 111.539C166.088 112.255 166.159 113.043 165.944 113.902C165.801 114.69 165.443 115.514 164.87 116.373C164.369 117.232 163.868 117.984 163.366 118.629C162.722 118.486 162.113 118.665 161.54 119.166C160.967 119.596 160.43 120.097 159.929 120.67C157.852 120.383 155.811 120.348 153.806 120.562C151.8 120.777 149.938 120.956 148.22 121.1C147.862 121.171 147.718 121.386 147.79 121.744C147.862 122.031 147.79 122.245 147.575 122.389C145.355 121.673 143.063 121.386 140.7 121.529C138.409 121.673 136.045 122.031 133.61 122.604C131.247 123.105 128.812 123.642 126.306 124.215C123.799 124.859 121.257 125.217 118.679 125.289ZM174.968 75.5527C175.183 74.4785 175.326 73.6191 175.397 72.9746C175.469 72.2585 175.218 71.5065 174.646 70.7188C174.932 69.5729 175.147 68.6777 175.29 68.0332C175.505 67.3887 175.541 66.4935 175.397 65.3477C176.042 63.4857 177.009 61.9102 178.298 60.6211C179.659 59.332 181.127 58.2578 182.702 57.3984C184.278 56.4674 185.925 55.7155 187.644 55.1426C189.362 54.498 190.974 53.9609 192.478 53.5312C192.478 53.2448 192.334 53.1016 192.048 53.1016C191.761 53.1016 191.69 52.9225 191.833 52.5645C195.7 51.8483 199.567 50.8099 203.435 49.4492C207.373 48.0885 211.384 46.8711 215.466 45.7969C219.548 44.7227 223.737 44.0781 228.034 43.8633C232.331 43.5768 236.843 44.1139 241.569 45.4746C241.856 46.334 242.25 47.1576 242.751 47.9453C243.252 48.7331 243.754 49.5208 244.255 50.3086C244.828 51.0247 245.329 51.7409 245.759 52.457C246.188 53.1732 246.439 53.9251 246.511 54.7129C247.37 55.5007 248.05 56.36 248.552 57.291C249.125 58.1504 249.232 59.332 248.874 60.8359C248.086 61.4089 247.263 61.9818 246.403 62.5547C245.544 63.1276 244.649 63.6647 243.718 64.166C240.495 63.3783 237.272 63.0918 234.05 63.3066C230.827 63.5215 227.927 63.7721 225.349 64.0586C224.561 63.1992 223.63 62.8053 222.556 62.877C221.481 62.877 220.336 63.056 219.118 63.4141C217.972 63.7005 216.826 64.0228 215.681 64.3809C214.535 64.6673 213.461 64.7389 212.458 64.5957C211.67 65.3118 210.632 65.8132 209.343 66.0996C208.054 66.3145 206.693 66.4935 205.261 66.6367C205.189 66.9948 205.261 67.2454 205.476 67.3887C205.69 67.5319 205.726 67.8184 205.583 68.248C206.084 68.8926 206.765 69.3581 207.624 69.6445C208.483 69.8594 209.343 70.0742 210.202 70.2891C211.133 70.5039 211.957 70.8262 212.673 71.2559C213.389 71.6139 213.854 72.2227 214.069 73.082C215.358 73.1536 216.468 73.5117 217.399 74.1562C218.33 74.7292 219.118 75.4453 219.763 76.3047C220.407 77.1641 220.873 78.0951 221.159 79.0977C221.446 80.0286 221.553 80.888 221.481 81.6758C221.768 82.3919 222.054 82.6784 222.341 82.5352C222.699 82.3919 223.093 82.571 223.522 83.0723C223.809 84.1465 224.453 85.2923 225.456 86.5098C226.53 87.6556 227.354 88.9089 227.927 90.2695C228.07 92.418 228.177 94.3516 228.249 96.0703C228.392 97.7891 228.106 99.472 227.39 101.119C226.172 104.27 224.418 107.099 222.126 109.605C219.834 112.112 217.22 114.332 214.284 116.266C211.42 118.128 208.376 119.775 205.153 121.207C201.931 122.568 198.744 123.714 195.593 124.645C195.306 124.573 194.948 124.573 194.519 124.645C194.16 124.716 194.089 124.501 194.304 124C193.659 124.573 192.907 124.931 192.048 125.074C191.26 125.217 190.365 125.253 189.362 125.182C188.431 125.182 187.465 125.146 186.462 125.074C185.531 125.003 184.6 125.038 183.669 125.182C183.096 124.609 182.559 124.036 182.058 123.463C181.628 122.89 181.27 122.21 180.983 121.422C180.625 121.35 180.446 121.135 180.446 120.777C180.518 120.348 180.375 120.133 180.017 120.133C180.017 119.846 180.052 119.632 180.124 119.488C180.196 119.345 180.267 119.202 180.339 119.059C180.625 118.844 180.733 118.701 180.661 118.629C180.661 118.486 180.554 118.378 180.339 118.307C180.196 118.163 180.017 118.02 179.802 117.877C179.659 117.734 179.623 117.555 179.694 117.34C180.052 116.695 180.16 115.943 180.017 115.084C179.945 114.153 179.873 113.222 179.802 112.291C179.73 111.36 179.802 110.501 180.017 109.713C180.231 108.854 180.84 108.137 181.843 107.564C184.779 107.851 187.536 107.708 190.114 107.135C192.764 106.562 195.235 105.774 197.526 104.771C199.89 103.769 202.11 102.695 204.187 101.549C206.335 100.331 208.412 99.2214 210.417 98.2188C210.632 97.5026 210.954 96.8939 211.384 96.3926C211.885 95.8913 212.386 95.4258 212.888 94.9961C213.389 94.4948 213.854 93.9935 214.284 93.4922C214.714 92.9193 215.036 92.2389 215.251 91.4512C215.323 91.1647 215.323 90.9499 215.251 90.8066C215.179 90.6634 215.072 90.556 214.929 90.4844C214.785 90.3411 214.642 90.1979 214.499 90.0547C214.356 89.9115 214.284 89.6966 214.284 89.4102C214.069 89.3385 213.854 89.2669 213.64 89.1953C213.496 89.1237 213.353 89.0879 213.21 89.0879C211.348 88.1569 209.379 87.3691 207.302 86.7246C205.225 86.0801 203.47 85.3639 202.038 84.5762C201.179 85.1491 200.319 85.2923 199.46 85.0059C198.601 84.7194 197.562 84.4329 196.345 84.1465C193.337 84.0033 190.472 83.7168 187.751 83.2871C185.101 82.8574 182.523 82.1055 180.017 81.0312C179.873 80.6016 179.694 80.2435 179.479 79.957C179.265 79.599 178.763 79.4915 177.976 79.6348C177.474 78.9186 176.937 78.2741 176.364 77.7012C175.863 77.0566 175.397 76.3405 174.968 75.5527ZM239.313 63.4141C239.242 62.8411 239.099 62.3398 238.884 61.9102C238.741 61.4089 238.562 60.8717 238.347 60.2988C237.989 59.4395 237.666 58.5085 237.38 57.5059C237.093 56.5033 236.95 55.3216 236.95 53.9609C237.093 53.2448 237.272 52.7435 237.487 52.457C237.702 52.099 237.917 51.8125 238.132 51.5977L238.562 49.6641H240.173C240.746 49.7357 241.319 49.7715 241.892 49.7715C242.536 49.7715 243.145 49.7715 243.718 49.7715C246.439 49.7715 249.232 49.6641 252.097 49.4492C254.961 49.2344 257.897 48.9837 260.905 48.6973C264.2 48.2676 267.744 47.9453 271.54 47.7305C271.898 46.9427 272.113 46.4414 272.185 46.2266C272.328 46.0117 272.471 45.7611 272.614 45.4746L273.796 44.8301C275.443 44.7585 276.589 44.9733 277.233 45.4746C277.878 45.9043 278.379 46.334 278.737 46.7637C280.599 46.6204 282.497 46.4414 284.431 46.2266C286.364 45.9401 288.369 45.6536 290.446 45.3672C293.311 45.0091 296.211 44.651 299.147 44.293C302.084 43.9349 304.948 43.7559 307.741 43.7559C308.959 43.7559 310.104 43.7917 311.179 43.8633C312.253 43.9349 313.291 44.0423 314.294 44.1855L315.583 45.1523C315.869 45.6536 316.228 46.1191 316.657 46.5488C317.087 46.9785 317.588 47.4082 318.161 47.8379C319.235 48.6973 320.274 49.7715 321.276 51.0605C322.351 52.3496 322.744 54.2474 322.458 56.7539L321.921 57.8281C321.634 58.1146 321.276 58.401 320.847 58.6875L319.772 60.084H318.591C317.875 60.084 317.338 60.1556 316.979 60.2988C316.621 60.3704 316.192 60.5137 315.69 60.7285C315.404 60.8717 315.082 61.015 314.724 61.1582C314.366 61.2298 313.972 61.3372 313.542 61.4805C312.754 61.4089 312.146 61.373 311.716 61.373C311.286 61.373 310.785 61.373 310.212 61.373C308.063 61.373 305.736 61.5163 303.229 61.8027C300.723 62.0892 298.288 62.4115 295.925 62.7695C294.206 62.9844 292.559 63.1992 290.983 63.4141C289.408 63.5573 287.976 63.7005 286.687 63.8438C285.97 65.7057 285.326 67.3529 284.753 68.7852C284.18 70.2174 283.571 71.6497 282.927 73.082C282.282 74.5143 281.674 75.9824 281.101 77.4863C280.528 78.9186 279.991 80.5299 279.489 82.3203C278.63 83.6094 277.914 84.8626 277.341 86.0801C276.768 87.2259 276.302 88.5508 275.944 90.0547C274.87 91.2721 274.082 92.597 273.581 94.0293C273.151 95.4616 272.757 96.679 272.399 97.6816L271.97 99.293C271.468 99.7943 271.146 100.188 271.003 100.475C270.931 100.761 270.752 101.083 270.466 101.441C270.251 102.372 269.965 103.268 269.606 104.127C269.463 104.485 269.32 104.879 269.177 105.309C269.034 105.667 268.998 105.953 269.069 106.168C268.926 106.956 268.711 107.564 268.425 107.994C268.425 108.424 268.389 108.854 268.317 109.283C268.246 109.713 268.174 110.143 268.103 110.572C267.959 111.074 267.852 111.539 267.78 111.969C267.709 112.327 267.744 112.685 267.888 113.043C268.103 113.329 268.317 113.616 268.532 113.902C268.747 114.189 268.926 114.547 269.069 114.977C269.213 115.12 269.392 115.227 269.606 115.299C269.821 115.37 270 115.478 270.144 115.621C270.716 116.122 271.254 116.409 271.755 116.48L272.829 117.77C273.259 120.348 272.865 122.353 271.647 123.785C270.358 125.432 268.21 126.256 265.202 126.256L263.698 126.148C263.197 125.647 262.91 125.325 262.839 125.182C262.194 124.895 261.657 124.645 261.228 124.43C260.798 124.286 260.404 123.964 260.046 123.463C259.903 123.32 259.724 123.248 259.509 123.248C259.294 123.176 259.115 123.069 258.972 122.926C258.256 122.711 257.683 122.46 257.253 122.174L256.071 121.529C256.143 120.813 256.179 120.312 256.179 120.025C255.606 119.238 255.14 118.378 254.782 117.447C254.496 116.516 254.245 115.549 254.03 114.547C253.815 113.759 253.601 113.043 253.386 112.398C253.243 111.754 252.992 111.181 252.634 110.68C252.491 105.667 252.956 101.477 254.03 98.1113C255.104 94.6738 256.286 91.3438 257.575 88.1211C258.291 86.4023 258.972 84.6478 259.616 82.8574C260.261 81.0671 260.834 79.2409 261.335 77.3789L262.517 76.1973C263.018 75.7676 263.34 75.5169 263.483 75.4453C263.483 74.5143 263.662 73.6191 264.021 72.7598C264.379 71.8288 264.772 70.8978 265.202 69.9668C265.489 69.3939 265.739 68.821 265.954 68.248C266.241 67.6751 266.42 67.1738 266.491 66.7441C265.99 66.7441 265.524 66.7799 265.095 66.8516C264.737 66.8516 264.343 66.8874 263.913 66.959C262.982 67.1738 262.087 67.2812 261.228 67.2812C260.583 67.2812 260.118 67.2454 259.831 67.1738C259.258 67.4603 258.721 67.6393 258.22 67.7109C257.718 67.7109 257.217 67.7109 256.716 67.7109H255.427H254.138C253.278 67.7109 252.598 67.8184 252.097 68.0332C251.094 68.0332 250.45 68.0332 250.163 68.0332C249.877 68.0332 249.554 68.0332 249.196 68.0332H247.907H246.618C246.045 68.0332 245.401 67.9974 244.685 67.9258C243.968 67.7826 243.216 67.4961 242.429 67.0664L241.677 66.207C241.247 65.4193 240.853 64.9896 240.495 64.918L239.313 64.5957V63.4141Z" fill="#2A5093"/>
</g>
<defs>
<filter id="filter0_i" x="13.791" y="47.3467" width="43.7633" height="67.3674" filterUnits="userSpaceOnUse" color-interpolation-filters="sRGB">
<feFlood flood-opacity="0" result="BackgroundImageFix"/>
<feBlend mode="normal" in="SourceGraphic" in2="BackgroundImageFix" result="shape"/>
<feColorMatrix in="SourceAlpha" type="matrix" values="0 0 0 0 0 0 0 0 0 0 0 0 0 0 0 0 0 0 127 0" result="hardAlpha"/>
<feOffset dy="4"/>
<feGaussianBlur stdDeviation="2"/>
<feComposite in2="hardAlpha" operator="arithmetic" k2="-1" k3="1"/>
<feColorMatrix type="matrix" values="0 0 0 0 0 0 0 0 0 0 0 0 0 0 0 0 0 0 0.3 0"/>
<feBlend mode="normal" in2="shape" result="effect1_innerShadow"/>
</filter>
<filter id="filter1_i" x="48.3389" y="43.7559" width="274.21" height="86.5" filterUnits="userSpaceOnUse" color-interpolation-filters="sRGB">
<feFlood flood-opacity="0" result="BackgroundImageFix"/>
<feBlend mode="normal" in="SourceGraphic" in2="BackgroundImageFix" result="shape"/>
<feColorMatrix in="SourceAlpha" type="matrix" values="0 0 0 0 0 0 0 0 0 0 0 0 0 0 0 0 0 0 127 0" result="hardAlpha"/>
<feOffset dy="4"/>
<feGaussianBlur stdDeviation="2"/>
<feComposite in2="hardAlpha" operator="arithmetic" k2="-1" k3="1"/>
<feColorMatrix type="matrix" values="0 0 0 0 0 0 0 0 0 0 0 0 0 0 0 0 0 0 0.25 0"/>
<feBlend mode="normal" in2="shape" result="effect1_innerShadow"/>
</filter>
</defs>
</svg>
